<?xml version="1.0" encoding="UTF-8"?>
<svg id="Layer_2" data-name="Layer 2" xmlns="http://www.w3.org/2000/svg" viewBox="0 0 880.08 614.94">
  <defs>
    <style>
      .cls-1 {
        fill: #fdefd5;
      }
    </style>
  </defs>
  <g id="Layer_1-2" data-name="Layer 1">
    <g>
      <g>
        <path class="cls-1" d="M221.48,512.96c-11.31-8.86-24.54-13.08-39.14-13.02-5.18,.61-10.46,.78-15.52,1.92-16.79,3.79-30.17,12.82-38.59,27.97-5.88,10.57-7.87,22.1-6.45,34.35,1.25,10.81,4.9,20.56,11.68,28.78,11.83,14.34,27.68,21.13,46.06,21.92,5.06,.22,10.22-.48,15.25-1.3,15.57-2.54,28.45-9.91,37.61-22.85,9.98-14.09,12.28-29.86,8.86-46.63-2.63-12.91-9.66-23.26-19.75-31.17Zm-8.29,61.24c-5.65,11.01-14.47,17.42-27.06,18.81-11.35,1.25-21.14-1.84-29-9.82-6.85-6.96-10.34-15.63-9.74-25.46-.85-16.97,10.43-30.43,23.1-34.23,13.27-3.98,25.61-1.78,35.88,7.74,5.32,4.93,8.63,11.44,9.93,18.73,1.5,8.39,.81,16.59-3.11,24.23Z"/>
        <path class="cls-1" d="M663.66,512.91c-11.33-8.85-24.56-13.04-39.16-12.98-5.07,.61-10.23,.8-15.18,1.91-17.95,4-31.83,13.8-40.07,30.43-4.95,9.98-6.58,20.68-5.23,31.99,1.29,10.8,4.93,20.55,11.73,28.76,11.94,14.42,27.91,21.19,46.42,21.87,4.95,.18,10-.48,14.92-1.31,15.53-2.61,28.41-9.92,37.56-22.91,9.97-14.13,12.24-29.89,8.81-46.64-2.64-12.89-9.69-23.24-19.8-31.14Zm-15.89,71.54c-5.46,5.08-11.98,7.85-19.64,8.6-11.37,1.12-21.13-2.01-28.93-10.04-6.71-6.91-10.16-15.49-9.71-22.89,.1-17.52,6.37-28.99,20.12-35.35,11.7-5.41,26.55-4.05,36.87,4.77,7.23,6.18,11.23,13.83,12.3,23.34,1.4,12.41-1.86,23.05-11.01,31.56Z"/>
        <path class="cls-1" d="M75.95,545.43H25.71v-43.38H0v110.75H25.91v-44.84h50.24v44.73h25.03v-110.75h-25.23v43.49Z"/>
        <path class="cls-1" d="M526.99,507.27c-9.39-4.56-19.68-5.16-29.85-5.41-13.82-.34-27.66-.09-41.49-.08-1.09,0-2.18,.1-3.39,.15v110.75h26.01v-30.1c7.13,0,13.86,.26,20.57-.08,6.07-.31,12.19-.87,18.15-2.05,10.14-2.01,18.59-7.17,24.72-15.6,7.06-9.71,8.22-20.8,5.89-32.14-2.43-11.83-9.82-20.23-20.61-25.46Zm-4.25,38.04c-1.85,10.64-8.94,15.37-18.98,15.88-4.23,.21-8.46,.53-12.69,.65-4.14,.11-8.28,.02-12.72,.02v-38.69c7.72,0,15.33-.18,22.92,.08,3.48,.12,7.04,.77,10.37,1.81,9.16,2.86,12.45,12.45,11.1,20.25Z"/>
        <path class="cls-1" d="M422.1,555.75c-7.58-4.06-15.84-5.98-24.07-8.1-6.59-1.7-13.21-3.46-19.59-5.79-3.08-1.13-5.3-3.65-5.64-7.58-.56-6.62,5-11.05,10.33-12.46,9.56-2.53,18.92-1.22,28.13,1.62,4.49,1.38,8.78,3.4,13.39,5.22,2.61-6.2,5.16-12.28,7.76-18.47-1.63-1.04-3.01-2.2-4.6-2.9-16.13-7.14-32.97-8.91-50.15-5.41-11.8,2.4-21.9,7.91-27.27,19.58-6.31,13.72-2.93,31.29,12.78,38.76,8.37,3.98,17.24,6.03,26.12,8.24,6.49,1.62,13.35,2.49,18.83,6.78,1.52,1.19,2.97,3.15,3.34,4.98,1.13,5.55-1.73,10.14-7.23,12.01-10.5,3.58-21.08,2.77-31.39-.52-6.63-2.11-12.93-5.28-19.42-7.99-2.51,5.64-5.28,11.85-8.09,18.15,1,.86,1.76,1.72,2.7,2.28,12.09,7.13,25.39,10.18,39.22,10.72,5.96,.24,12.04-.37,17.94-1.34,8.77-1.44,16.95-4.88,23.2-11.3,5.89-6.04,8.82-13.47,8.76-22.28-.09-11.39-5.37-19.02-15.05-24.21Z"/>
        <path class="cls-1" d="M865.15,555.8c-7.66-4.11-16.04-6.07-24.39-8.18-6.6-1.67-13.18-3.54-19.56-5.88-2.98-1.09-5.13-3.54-5.46-7.33-.6-6.87,4.91-11.19,10.18-12.57,9.05-2.37,18.03-1.5,26.83,1.25,4.92,1.54,9.7,3.53,14.87,5.44,2.54-6.06,5.12-12.2,7.7-18.35-1.67-1.08-2.97-2.17-4.46-2.84-16.23-7.24-33.22-9.12-50.47-5.42-15.17,3.25-26.71,11.24-29.57,27.93-2.01,11.74,2.39,23.5,13.97,29.67,8.6,4.58,17.96,6.62,27.29,8.92,6.5,1.6,13.35,2.44,18.83,6.75,1.52,1.2,3.09,3.08,3.46,4.88,1.22,5.89-.79,9.45-7.43,12.14-8.34,3.38-17.09,2.66-25.64,.98-8.81-1.73-17.19-4.86-24.56-10.32-2.83,6.3-5.58,12.43-8.57,19.09,1.33,.96,2.49,2.02,3.83,2.74,8.7,4.73,17.92,7.62,27.79,9.12,10.62,1.61,21.05,1.43,31.42-.94,7.65-1.75,14.84-5.02,20.25-10.79,5.77-6.15,8.72-13.54,8.61-22.35-.14-11.26-5.39-18.84-14.92-23.96Z"/>
        <path class="cls-1" d="M243.64,523.13h35.66v89.66h25.47v-89.67h34.86v-21.18h-95.99v21.19Z"/>
        <path class="cls-1" d="M685.88,523.25h35.66v89.55h25.47v-89.79h34.87v-21.07h-96v21.31Z"/>
      </g>
      <g>
        <path class="cls-1" d="M492.54,93.21c-2.98,5.83-6.35,11.81-9.98,17.91,66.25,18.6,114.97,79.55,114.97,151.66,0,58.55-32.12,109.74-79.66,136.88V241.96c-25-8.99-49.48-17.79-74.47-26.78v205.07c-1.12,.02-2.24,.04-3.37,.04-.24,0-.47,0-.71,0V215.07c-26.42,8.72-52.02,17.17-77.98,25.73v158.38c-47.07-27.26-78.81-78.19-78.81-136.39,0-72.85,49.73-134.3,117.02-152.22-3.42-5.65-6.45-10.81-9.1-15.6-.4-.72-.8-1.45-1.18-2.16h0s-.04-.07-.06-.1c-73.19,21.91-126.68,89.86-126.68,170.08,0,97.87,79.63,177.5,177.5,177.5s177.5-79.63,177.5-177.5c0-79.6-52.67-147.13-125-169.57Zm-36.95,266.54c.26-4.9,5.8-8.1,11.24-7.58,4.76,.46,7.27,3.39,7.34,8.92,.08,7.31,.01,14.62-.01,21.93-.01,.66-.18,1.31-.38,2.73-6.09,.89-11.94,1.75-18.33,2.68,0-9.85-.35-19.29,.14-28.68Zm34.75-80.81c.35-4.15,4.52-5.44,8.48-5.11,4.1,.34,7.1,2.64,7.26,6.84,.32,8.08,.09,16.18,.09,25.15-5.74-.58-10.65-1.08-16.03-1.62,0-8.56-.48-16.96,.2-25.26Zm-.21,78.52c.25-4.27,4.18-5.82,8.11-5.73,4.02,.1,7.48,2.11,7.71,6.34,.44,7.89,.13,15.82,.13,24.03-5.45,.81-10.46,1.56-16.1,2.4,0-9.32-.36-18.2,.15-27.04Zm-34.64-83.85c.22-4.76,5.19-7.86,10.64-7.54,5.06,.29,7.94,3.06,8.02,8.24,.13,8.76,.03,17.53,.03,27.15-6.72-.78-12.57-1.45-18.8-2.18,0-8.82-.29-17.26,.11-25.67Zm-82.82,83.51c.26-3.98,3.94-5.7,7.75-5.45,3.75,.24,6.93,2.03,7.03,6.32,.19,8.44,.05,16.88,.05,26.07-5.26-.73-9.83-1.37-14.99-2.09,0-8.41-.38-16.66,.16-24.85Zm31.82-83.72c.18-4.45,4.8-7.41,9.82-7.23,4.78,.16,8.87,3.24,9.01,7.58,.28,8.42,.09,16.86,.09,25.73-6.37,.72-12.39,1.4-19.03,2.15,0-9.77-.26-19.01,.11-28.23Zm-.1,86.63c.15-4.84,4.45-8.02,9.77-7.92,5.1,.11,9.08,3.25,9.2,7.98,.23,9.13,.07,18.27,.07,28.14-6.6-.95-12.71-1.83-19.12-2.75,0-8.83-.19-17.15,.08-25.45Zm-31.76-80.15c.24-3.94,3.76-5.79,7.68-5.6,3.87,.2,6.98,2.04,7.12,6.24,.26,7.79,.07,15.6,.07,24-5.24,.54-9.83,1.02-15.03,1.56,0-9.02-.35-17.63,.16-26.2Z"/>
        <path class="cls-1" d="M495.18,49.37c-1.14-15.1-7.94-27.31-19.39-36.92-18.4-15.43-45.6-16.61-65.62-3-9.65,6.57-16.46,15.43-20.57,26.33-11.1,29.43,5.88,48.33,51.41,122.78,24.9-40.72,56.2-82.31,54.17-109.19Zm-54.25-25.66c17.05,.11,30.71,13.74,30.83,30.8,.13,17.34-13.49,31.12-30.84,31.19-17.27,.06-31.21-13.77-31.18-30.94,.02-17.16,14.09-31.16,31.19-31.05Z"/>
        <path class="cls-1" d="M487.07,206.49v20.11c-15.45-5.53-30.55-10.93-45.75-16.36-16.35,5.38-32.72,10.77-49.52,16.3v-20.66c16.25-5.86,32.47-11.71,48.76-17.58,15.48,6.06,30.91,12.09,46.5,18.19Z"/>
        <path class="cls-1" d="M440.29,172.13c11.69,4.84,23.32,9.66,34.99,14.5v11c-11.83-4.64-23.2-9.09-34.65-13.58-12.19,4.42-24.35,8.82-36.93,13.38v-11.25c12-4.6,24.21-9.29,36.59-14.04Z"/>
      </g>
    </g>
  </g>
</svg>