<?xml version="1.0" encoding="UTF-8"?>
<svg id="Layer_2" data-name="Layer 2" xmlns="http://www.w3.org/2000/svg" viewBox="0 0 1744.85 440.29">
  <defs>
    <style>
      .cls-1 {
        fill: #043047;
      }
    </style>
  </defs>
  <g id="Layer_1-2" data-name="Layer 1">
    <g>
      <path class="cls-1" d="M711.45,181.78c21.63-.1,41.22,6.15,57.97,19.28,14.94,11.71,25.36,27.04,29.26,46.16,5.06,24.83,1.66,48.19-13.12,69.06-13.57,19.16-32.64,30.08-55.7,33.84-7.45,1.21-15.1,2.25-22.59,1.92-27.22-1.17-50.7-11.23-68.22-32.47-10.04-12.17-15.45-26.61-17.3-42.63-2.1-18.16,.85-35.23,9.55-50.88,12.48-22.44,32.29-35.8,57.16-41.42,7.49-1.69,15.31-1.94,22.99-2.85Zm-51.77,85.59c-.89,14.55,4.27,27.4,14.42,37.71,11.64,11.82,26.15,16.4,42.96,14.54,18.65-2.06,31.72-11.55,40.08-27.86,5.8-11.31,6.81-23.46,4.6-35.88-1.93-10.8-6.84-20.45-14.71-27.75-15.21-14.1-33.49-17.36-53.14-11.47-18.76,5.63-35.47,25.57-34.21,50.7Z"/>
      <path class="cls-1" d="M1366.33,181.77c21.62-.1,41.21,6.11,57.99,19.22,14.98,11.7,25.41,27.02,29.33,46.12,5.08,24.8,1.71,48.14-13.05,69.07-13.56,19.23-32.63,30.07-55.64,33.93-7.28,1.22-14.76,2.21-22.09,1.94-27.42-1.01-51.07-11.04-68.75-32.39-10.07-12.16-15.47-26.6-17.37-42.6-2-16.75,.42-32.6,7.74-47.38,12.21-24.63,32.77-39.15,59.35-45.07,7.34-1.64,14.98-1.92,22.49-2.83Zm-51.86,89.15c-.67,10.95,4.44,23.66,14.38,33.9,11.56,11.9,26.01,16.54,42.85,14.87,11.35-1.12,20.99-5.22,29.08-12.74,13.56-12.61,18.38-28.37,16.31-46.75-1.59-14.08-7.51-25.42-18.21-34.57-15.28-13.06-37.28-15.08-54.6-7.06-20.37,9.42-29.66,26.41-29.81,52.36Z"/>
      <path class="cls-1" d="M479.75,348.93h-38.37V184.89h38.08v64.25h74.41v-64.41h37.37v164.03h-37.08v-66.25h-74.41v66.41Z"/>
      <path class="cls-1" d="M1149.73,304.18v44.57h-38.52V184.72c1.8-.09,3.41-.23,5.03-.23,20.48-.02,40.98-.39,61.45,.12,15.07,.37,30.29,1.27,44.21,8.02,15.97,7.75,26.92,20.19,30.52,37.71,3.44,16.79,1.73,33.21-8.73,47.6-9.08,12.48-21.6,20.13-36.61,23.1-8.82,1.75-17.88,2.58-26.88,3.03-9.93,.51-19.91,.12-30.47,.12Zm.12-30.7c6.58,0,12.71,.13,18.83-.04,6.27-.17,12.53-.64,18.8-.96,14.87-.75,25.38-7.76,28.11-23.52,2-11.55-2.88-25.76-16.44-29.99-4.93-1.54-10.2-2.5-15.35-2.68-11.24-.4-22.51-.12-33.95-.12v57.3Z"/>
      <path class="cls-1" d="M1081.81,196.95c-3.85,9.17-7.63,18.17-11.49,27.35-6.82-2.7-13.18-5.69-19.83-7.74-13.63-4.2-27.51-6.14-41.66-2.4-7.89,2.09-16.13,8.66-15.29,18.46,.5,5.83,3.79,9.56,8.35,11.23,9.46,3.46,19.25,6.05,29.02,8.58,12.19,3.15,24.43,5.99,35.65,12,14.34,7.68,22.16,18.98,22.29,35.85,.1,13.05-4.25,24.05-12.97,33-9.27,9.51-21.37,14.61-34.37,16.74-8.74,1.43-17.75,2.33-26.58,1.98-20.49-.81-40.18-5.32-58.09-15.88-1.39-.82-2.51-2.1-4-3.37,4.16-9.33,8.26-18.54,11.99-26.89,9.61,4.01,18.94,8.7,28.76,11.83,15.27,4.87,30.94,6.07,46.49,.77,8.13-2.77,12.38-9.58,10.7-17.79-.55-2.71-2.7-5.62-4.95-7.38-8.12-6.36-18.27-7.65-27.88-10.04-13.16-3.28-26.29-6.31-38.69-12.2-23.27-11.06-28.28-37.09-18.93-57.41,7.95-17.29,22.91-25.44,40.39-29,25.45-5.18,50.39-2.57,74.28,8.01,2.35,1.04,4.4,2.75,6.81,4.29Z"/>
      <path class="cls-1" d="M1608.73,332.88c4.43-9.87,8.5-18.95,12.69-28.28,10.91,8.09,23.32,12.73,36.37,15.29,12.66,2.49,25.62,3.55,37.97-1.45,9.84-3.98,12.82-9.26,11.01-17.98-.56-2.68-2.87-5.45-5.13-7.23-8.11-6.4-18.27-7.63-27.89-10-13.81-3.41-27.67-6.42-40.41-13.21-17.15-9.13-23.66-26.56-20.69-43.94,4.23-24.72,21.33-36.57,43.79-41.37,25.55-5.47,50.71-2.69,74.75,8.03,2.21,.98,4.13,2.6,6.61,4.2-3.82,9.1-7.63,18.2-11.4,27.17-7.66-2.83-14.74-5.77-22.03-8.05-13.03-4.08-26.33-5.36-39.73-1.85-7.8,2.04-15.97,8.44-15.08,18.61,.49,5.61,3.68,9.24,8.09,10.86,9.45,3.47,19.2,6.24,28.97,8.71,12.37,3.13,24.78,6.02,36.13,12.11,14.12,7.58,21.9,18.82,22.1,35.49,.16,13.04-4.21,24-12.76,33.1-8.02,8.55-18.66,13.39-29.99,15.98-15.35,3.51-30.79,3.77-46.53,1.39-14.62-2.21-28.28-6.49-41.16-13.51-1.98-1.08-3.7-2.64-5.67-4.07Z"/>
      <path class="cls-1" d="M855.05,216.12h-52.81v-31.38h142.17v31.37h-51.63v132.81h-37.72V216.12Z"/>
      <path class="cls-1" d="M1599.41,184.74v31.2h-51.64v132.98h-37.72V216.3h-52.81v-31.56h142.18Z"/>
      <g>
        <path class="cls-1" d="M230,93.21c-2.98,5.83-6.35,11.81-9.98,17.91,66.25,18.6,114.97,79.55,114.97,151.66,0,58.55-32.12,109.74-79.66,136.88V241.96c-25-8.99-49.48-17.79-74.47-26.78v205.07c-1.12,.02-2.24,.04-3.37,.04-.24,0-.47,0-.71,0V215.07c-26.42,8.72-52.02,17.17-77.98,25.73v158.38c-47.07-27.26-78.81-78.19-78.81-136.39,0-72.85,49.73-134.3,117.02-152.22-3.42-5.65-6.45-10.81-9.1-15.6-.4-.72-.8-1.45-1.18-2.16h0s-.04-.07-.06-.1C53.5,114.62,0,182.57,0,262.79c0,97.87,79.63,177.5,177.5,177.5s177.5-79.63,177.5-177.5c0-79.6-52.67-147.13-125-169.57Zm-36.95,266.54c.26-4.9,5.8-8.1,11.24-7.58,4.76,.46,7.27,3.39,7.34,8.92,.08,7.31,.01,14.62-.01,21.93-.01,.66-.18,1.31-.38,2.73-6.09,.89-11.94,1.75-18.33,2.68,0-9.85-.35-19.29,.14-28.68Zm34.75-80.81c.35-4.15,4.52-5.44,8.48-5.11,4.1,.34,7.1,2.64,7.26,6.84,.32,8.08,.09,16.18,.09,25.15-5.74-.58-10.65-1.08-16.03-1.62,0-8.56-.48-16.96,.2-25.26Zm-.21,78.52c.25-4.27,4.18-5.82,8.11-5.73,4.02,.1,7.48,2.11,7.71,6.34,.44,7.89,.13,15.82,.13,24.03-5.45,.81-10.46,1.56-16.1,2.4,0-9.32-.36-18.2,.15-27.04Zm-34.64-83.85c.22-4.76,5.19-7.86,10.64-7.54,5.06,.29,7.94,3.06,8.02,8.24,.13,8.76,.03,17.53,.03,27.15-6.72-.78-12.57-1.45-18.8-2.18,0-8.82-.29-17.26,.11-25.67Zm-82.82,83.51c.26-3.98,3.94-5.7,7.75-5.45,3.75,.24,6.93,2.03,7.03,6.32,.19,8.44,.05,16.88,.05,26.07-5.26-.73-9.83-1.37-14.99-2.09,0-8.41-.38-16.66,.16-24.85Zm31.82-83.72c.18-4.45,4.8-7.41,9.82-7.23,4.78,.16,8.87,3.24,9.01,7.58,.28,8.42,.09,16.86,.09,25.73-6.37,.72-12.39,1.4-19.03,2.15,0-9.77-.26-19.01,.11-28.23Zm-.1,86.63c.15-4.84,4.45-8.02,9.77-7.92,5.1,.11,9.08,3.25,9.2,7.98,.23,9.13,.07,18.27,.07,28.14-6.6-.95-12.71-1.83-19.12-2.75,0-8.83-.19-17.15,.08-25.45Zm-31.76-80.15c.24-3.94,3.76-5.79,7.68-5.6,3.87,.2,6.98,2.04,7.12,6.24,.26,7.79,.07,15.6,.07,24-5.24,.54-9.83,1.02-15.03,1.56,0-9.02-.35-17.63,.16-26.2Z"/>
        <path class="cls-1" d="M232.64,49.37c-1.14-15.1-7.94-27.31-19.39-36.92-18.4-15.43-45.6-16.61-65.62-3-9.65,6.57-16.46,15.43-20.57,26.33-11.1,29.43,5.88,48.33,51.41,122.78,24.9-40.72,56.2-82.31,54.17-109.19Zm-54.25-25.66c17.05,.11,30.71,13.74,30.83,30.8,.13,17.34-13.49,31.12-30.84,31.19-17.27,.06-31.21-13.77-31.18-30.94,.02-17.16,14.09-31.16,31.19-31.05Z"/>
        <path class="cls-1" d="M224.53,206.49v20.11c-15.45-5.53-30.55-10.93-45.75-16.36-16.35,5.38-32.72,10.77-49.52,16.3v-20.66c16.25-5.86,32.47-11.71,48.76-17.58,15.48,6.06,30.91,12.09,46.5,18.19Z"/>
        <path class="cls-1" d="M177.75,172.13c11.69,4.84,23.32,9.66,34.99,14.5v11c-11.83-4.64-23.2-9.09-34.65-13.58-12.19,4.42-24.35,8.82-36.93,13.38v-11.25c12-4.6,24.21-9.29,36.59-14.04Z"/>
      </g>
    </g>
  </g>
</svg>