<?xml version="1.0" encoding="UTF-8"?>
<svg id="Layer_2" data-name="Layer 2" xmlns="http://www.w3.org/2000/svg" viewBox="0 0 904.29 440.29">
  <defs>
    <style>
      .cls-1 {
        fill: #fdefd5;
      }
    </style>
  </defs>
  <g id="Layer_1-2" data-name="Layer 1">
    <g>
      <g>
        <polygon class="cls-1" points="443.69 202 492.04 202 492.04 245.77 516.75 245.77 516.75 139 492.04 139 492.04 181.1 443.69 181.1 443.69 139 418.83 139 418.83 245.77 443.69 245.77 443.69 202"/>
        <path class="cls-1" d="M642,214.43c2.9-6.76,4.35-14.11,4.35-22.04s-1.45-15.4-4.35-22.12-6.99-12.56-12.28-17.54c-5.29-4.98-11.47-8.82-18.53-11.52-7.07-2.69-14.82-4.04-23.26-4.04s-16.19,1.37-23.26,4.12c-7.07,2.75-13.25,6.61-18.53,11.59-5.29,4.98-9.38,10.81-12.28,17.46-2.9,6.66-4.35,14.01-4.35,22.04s1.45,15.25,4.35,21.96,6.99,12.56,12.28,17.54c5.29,4.98,11.49,8.85,18.61,11.59,7.12,2.75,14.9,4.12,23.34,4.12s16.04-1.35,23.11-4.04c7.07-2.69,13.24-6.53,18.53-11.52,5.29-4.98,9.38-10.85,12.28-17.62Zm-23.18-8.24c-1.68,4.12-4.04,7.73-7.09,10.83-3.05,3.1-6.58,5.49-10.6,7.17-4.02,1.68-8.42,2.52-13.19,2.52s-9.2-.84-13.27-2.52c-4.07-1.68-7.6-4.07-10.6-7.17-3-3.1-5.34-6.71-7.02-10.83s-2.52-8.72-2.52-13.8,.84-9.69,2.52-13.8,4.02-7.73,7.02-10.83c3-3.1,6.53-5.49,10.6-7.17,4.07-1.68,8.49-2.52,13.27-2.52s9.18,.84,13.19,2.52c4.02,1.68,7.55,4.07,10.6,7.17,3.05,3.1,5.42,6.71,7.09,10.83s2.52,8.72,2.52,13.8-.84,9.69-2.52,13.8Z"/>
        <polygon class="cls-1" points="674.76 245.77 699.47 245.77 699.47 159.14 733.64 159.14 733.64 139 640.6 139 640.6 159.14 674.76 159.14 674.76 245.77"/>
        <path class="cls-1" d="M491.73,328.41c-3.66-2.19-7.68-3.99-12.05-5.41-4.37-1.42-8.8-2.62-13.27-3.58-4.48-.96-8.54-1.93-12.2-2.9-3.66-.96-6.61-2.31-8.85-4.04-2.24-1.73-3.36-4.02-3.36-6.86,0-2.24,.69-4.27,2.06-6.1,1.37-1.83,3.53-3.28,6.48-4.35,2.95-1.07,6.86-1.6,11.74-1.6s9.56,.69,14.64,2.06c5.08,1.37,10.01,3.43,14.79,6.18l7.78-18.61c-4.88-3.05-10.6-5.39-17.16-7.02-6.56-1.62-13.19-2.44-19.9-2.44-10.07,0-18.43,1.5-25.09,4.5-6.66,3-11.62,7.02-14.87,12.05-3.26,5.03-4.88,10.6-4.88,16.7,0,5.59,1.09,10.25,3.28,13.96,2.19,3.71,5.13,6.71,8.85,9,3.71,2.29,7.78,4.12,12.2,5.49,4.42,1.37,8.82,2.54,13.19,3.51,4.37,.97,8.41,1.98,12.13,3.05,3.71,1.07,6.69,2.44,8.92,4.12,2.24,1.68,3.36,3.94,3.36,6.79,0,2.24-.71,4.19-2.14,5.87-1.43,1.68-3.64,3.03-6.63,4.04-3,1.02-6.94,1.53-11.82,1.53-6.41,0-12.76-1.04-19.07-3.13-6.31-2.08-11.69-4.75-16.17-8.01l-8.39,18.61c4.78,3.66,11.11,6.63,18.99,8.92,7.88,2.29,16.09,3.43,24.63,3.43,10.07,0,18.46-1.52,25.17-4.58,6.71-3.05,11.72-7.07,15.02-12.05,3.3-4.98,4.96-10.47,4.96-16.47,0-5.49-1.14-10.09-3.43-13.8-2.29-3.71-5.26-6.66-8.92-8.85Z"/>
        <path class="cls-1" d="M583.35,280.22c-6.92-3.1-15.15-4.65-24.71-4.65h-46.21v106.77h24.86v-29.44h21.35c9.56,0,17.79-1.58,24.71-4.73,6.91-3.15,12.25-7.6,16.02-13.35,3.76-5.74,5.64-12.63,5.64-20.67s-1.88-14.79-5.64-20.59c-3.76-5.8-9.1-10.24-16.02-13.35Zm-9,47.66c-3.87,3.26-9.56,4.88-17.08,4.88h-19.98v-37.06h19.98c7.52,0,13.22,1.6,17.08,4.8,3.86,3.2,5.8,7.75,5.8,13.65s-1.93,10.47-5.8,13.73Z"/>
        <path class="cls-1" d="M713.09,289.29c-5.29-4.98-11.47-8.82-18.53-11.52-7.07-2.69-14.82-4.04-23.26-4.04s-16.19,1.37-23.26,4.12c-7.07,2.75-13.25,6.61-18.53,11.59-5.29,4.98-9.38,10.81-12.28,17.46-2.9,6.66-4.35,14.01-4.35,22.04s1.45,15.25,4.35,21.96,6.99,12.56,12.28,17.54c5.29,4.98,11.49,8.85,18.61,11.59,7.12,2.75,14.9,4.12,23.34,4.12s16.04-1.35,23.11-4.04c7.07-2.69,13.24-6.53,18.53-11.52,5.29-4.98,9.38-10.85,12.28-17.62,2.9-6.76,4.35-14.11,4.35-22.04s-1.45-15.4-4.35-22.12-6.99-12.56-12.28-17.54Zm-10.91,53.46c-1.68,4.12-4.04,7.73-7.09,10.83-3.05,3.1-6.58,5.49-10.6,7.17-4.02,1.68-8.42,2.52-13.19,2.52s-9.2-.84-13.27-2.52c-4.07-1.68-7.6-4.07-10.6-7.17-3-3.1-5.34-6.71-7.02-10.83s-2.52-8.72-2.52-13.8,.84-9.69,2.52-13.8,4.02-7.73,7.02-10.83c3-3.1,6.53-5.49,10.6-7.17,4.07-1.68,8.49-2.52,13.27-2.52s9.18,.84,13.19,2.52c4.02,1.68,7.55,4.07,10.6,7.17,3.05,3.1,5.42,6.71,7.09,10.83s2.52,8.72,2.52,13.8-.84,9.69-2.52,13.8Z"/>
        <polygon class="cls-1" points="817 275.56 723.97 275.56 723.97 295.7 758.13 295.7 758.13 382.33 782.84 382.33 782.84 295.7 817 295.7 817 275.56"/>
        <path class="cls-1" d="M900.86,337.26c-2.29-3.71-5.26-6.66-8.92-8.85-3.66-2.19-7.68-3.99-12.05-5.41-4.37-1.42-8.8-2.62-13.27-3.58-4.48-.96-8.54-1.93-12.2-2.9-3.66-.96-6.61-2.31-8.85-4.04-2.24-1.73-3.36-4.02-3.36-6.86,0-2.24,.69-4.27,2.06-6.1,1.37-1.83,3.53-3.28,6.48-4.35,2.95-1.07,6.86-1.6,11.74-1.6s9.56,.69,14.64,2.06c5.08,1.37,10.01,3.43,14.79,6.18l7.78-18.61c-4.88-3.05-10.6-5.39-17.16-7.02-6.56-1.62-13.19-2.44-19.9-2.44-10.07,0-18.43,1.5-25.09,4.5-6.66,3-11.62,7.02-14.87,12.05-3.26,5.03-4.88,10.6-4.88,16.7,0,5.59,1.09,10.25,3.28,13.96,2.19,3.71,5.13,6.71,8.85,9,3.71,2.29,7.78,4.12,12.2,5.49,4.42,1.37,8.82,2.54,13.19,3.51,4.37,.97,8.41,1.98,12.13,3.05,3.71,1.07,6.69,2.44,8.92,4.12,2.24,1.68,3.36,3.94,3.36,6.79,0,2.24-.71,4.19-2.14,5.87-1.43,1.68-3.64,3.03-6.63,4.04-3,1.02-6.94,1.53-11.82,1.53-6.41,0-12.76-1.04-19.07-3.13-6.31-2.08-11.69-4.75-16.17-8.01l-8.39,18.61c4.78,3.66,11.11,6.63,18.99,8.92,7.88,2.29,16.09,3.43,24.63,3.43,10.07,0,18.46-1.52,25.17-4.58,6.71-3.05,11.72-7.07,15.02-12.05,3.3-4.98,4.96-10.47,4.96-16.47,0-5.49-1.14-10.09-3.43-13.8Z"/>
      </g>
      <g>
        <path class="cls-1" d="M230,93.21c-2.98,5.83-6.35,11.81-9.98,17.91,66.25,18.6,114.97,79.55,114.97,151.66,0,58.55-32.12,109.74-79.66,136.88V241.96c-25-8.99-49.48-17.79-74.47-26.78v205.07c-1.12,.02-2.24,.04-3.37,.04-.24,0-.47,0-.71,0V215.07c-26.42,8.72-52.02,17.17-77.98,25.73v158.38c-47.07-27.26-78.81-78.19-78.81-136.39,0-72.85,49.73-134.3,117.02-152.22-3.42-5.65-6.45-10.81-9.1-15.6-.4-.72-.8-1.45-1.18-2.16h0s-.04-.07-.06-.1C53.5,114.62,0,182.57,0,262.79c0,97.87,79.63,177.5,177.5,177.5s177.5-79.63,177.5-177.5c0-79.6-52.67-147.13-125-169.57Zm-36.95,266.54c.26-4.9,5.8-8.1,11.24-7.58,4.76,.46,7.27,3.39,7.34,8.92,.08,7.31,.01,14.62-.01,21.93-.01,.66-.18,1.31-.38,2.73-6.09,.89-11.94,1.75-18.33,2.68,0-9.85-.35-19.29,.14-28.68Zm34.75-80.81c.35-4.15,4.52-5.44,8.48-5.11,4.1,.34,7.1,2.64,7.26,6.84,.32,8.08,.09,16.18,.09,25.15-5.74-.58-10.65-1.08-16.03-1.62,0-8.56-.48-16.96,.2-25.26Zm-.21,78.52c.25-4.27,4.18-5.82,8.11-5.73,4.02,.1,7.48,2.11,7.71,6.34,.44,7.89,.13,15.82,.13,24.03-5.45,.81-10.46,1.56-16.1,2.4,0-9.32-.36-18.2,.15-27.04Zm-34.64-83.85c.22-4.76,5.19-7.86,10.64-7.54,5.06,.29,7.94,3.06,8.02,8.24,.13,8.76,.03,17.53,.03,27.15-6.72-.78-12.57-1.45-18.8-2.18,0-8.82-.29-17.26,.11-25.67Zm-82.82,83.51c.26-3.98,3.94-5.7,7.75-5.45,3.75,.24,6.93,2.03,7.03,6.32,.19,8.44,.05,16.88,.05,26.07-5.26-.73-9.83-1.37-14.99-2.09,0-8.41-.38-16.66,.16-24.85Zm31.82-83.72c.18-4.45,4.8-7.41,9.82-7.23,4.78,.16,8.87,3.24,9.01,7.58,.28,8.42,.09,16.86,.09,25.73-6.37,.72-12.39,1.4-19.03,2.15,0-9.77-.26-19.01,.11-28.23Zm-.1,86.63c.15-4.84,4.45-8.02,9.77-7.92,5.1,.11,9.08,3.25,9.2,7.98,.23,9.13,.07,18.27,.07,28.14-6.6-.95-12.71-1.83-19.12-2.75,0-8.83-.19-17.15,.08-25.45Zm-31.76-80.15c.24-3.94,3.76-5.79,7.68-5.6,3.87,.2,6.98,2.04,7.12,6.24,.26,7.79,.07,15.6,.07,24-5.24,.54-9.83,1.02-15.03,1.56,0-9.02-.35-17.63,.16-26.2Z"/>
        <path class="cls-1" d="M232.64,49.37c-1.14-15.1-7.94-27.31-19.39-36.92-18.4-15.43-45.6-16.61-65.62-3-9.65,6.57-16.46,15.43-20.57,26.33-11.1,29.43,5.88,48.33,51.41,122.78,24.9-40.72,56.2-82.31,54.17-109.19Zm-54.25-25.66c17.05,.11,30.71,13.74,30.83,30.8,.13,17.34-13.49,31.12-30.84,31.19-17.27,.06-31.21-13.77-31.18-30.94,.02-17.16,14.09-31.16,31.19-31.05Z"/>
        <path class="cls-1" d="M224.53,206.49v20.11c-15.45-5.53-30.55-10.93-45.75-16.36-16.35,5.38-32.72,10.77-49.52,16.3v-20.66c16.25-5.86,32.47-11.71,48.76-17.58,15.48,6.06,30.91,12.09,46.5,18.19Z"/>
        <path class="cls-1" d="M177.75,172.13c11.69,4.84,23.32,9.66,34.99,14.5v11c-11.83-4.64-23.2-9.09-34.65-13.58-12.19,4.42-24.35,8.82-36.93,13.38v-11.25c12-4.6,24.21-9.29,36.59-14.04Z"/>
      </g>
    </g>
  </g>
</svg>